<?xml version="1.0" standalone="no"?>
<!DOCTYPE svg PUBLIC "-//W3C//DTD SVG 20010904//EN"
 "http://www.w3.org/TR/2001/REC-SVG-20010904/DTD/svg10.dtd">
<svg version="1.0" xmlns="http://www.w3.org/2000/svg"
 width="1125.000000pt" height="1125.000000pt" viewBox="0 0 1125.000000 1125.000000"
 preserveAspectRatio="xMidYMid meet">
<metadata>
Created by potrace 1.11, written by Peter Selinger 2001-2013
</metadata>
<g transform="translate(0.000000,1125.000000) scale(0.100000,-0.100000)"
fill="#000000" stroke="none">
<path d="M5530 10789 c-191 -21 -190 -21 -615 -267 -137 -80 -285 -165 -328
-189 -43 -24 -95 -54 -115 -67 -20 -12 -44 -26 -52 -29 -8 -4 -31 -17 -50 -28
-36 -22 -399 -232 -460 -266 -19 -11 -60 -35 -90 -53 -30 -18 -71 -42 -90 -53
-19 -11 -183 -105 -365 -210 -181 -105 -346 -200 -367 -211 -48 -28 -237 -137
-263 -153 -11 -7 -27 -16 -35 -20 -8 -4 -47 -26 -86 -49 -38 -23 -176 -102
-305 -176 -129 -74 -295 -170 -369 -213 -74 -43 -148 -86 -165 -95 -395 -227
-411 -237 -481 -307 -60 -59 -66 -66 -120 -143 -67 -96 -126 -247 -141 -360
-5 -36 -8 -1073 -8 -2305 0 -2098 1 -2244 18 -2309 45 -177 120 -309 246 -433
75 -74 162 -130 516 -331 11 -6 54 -31 95 -55 41 -24 100 -57 130 -74 30 -17
181 -104 335 -193 154 -89 299 -173 323 -187 23 -13 91 -52 151 -87 59 -34
114 -66 122 -69 8 -4 28 -16 44 -27 17 -11 37 -23 45 -27 13 -6 139 -77 180
-102 8 -5 132 -77 275 -159 143 -83 391 -225 550 -317 160 -93 305 -176 323
-186 63 -37 99 -57 257 -149 88 -51 174 -101 190 -110 17 -9 87 -50 155 -90
69 -40 145 -84 170 -98 25 -13 59 -33 75 -42 182 -110 526 -123 733 -28 24 10
146 78 270 150 125 72 315 181 422 243 107 62 236 136 285 165 50 29 108 63
130 75 22 13 94 54 160 92 66 38 244 141 395 228 151 87 280 161 285 165 6 4
30 19 55 32 44 25 145 83 338 194 53 31 122 70 152 87 30 17 57 34 58 39 2 4
8 8 13 8 9 0 203 110 459 260 63 37 131 77 150 87 19 11 123 71 230 133 107
62 215 124 240 138 25 14 59 33 75 43 17 10 48 28 70 40 171 93 313 239 387
399 46 98 60 148 76 267 4 32 7 1064 7 2293 l-1 2235 -24 84 c-55 200 -172
373 -333 497 -31 24 -59 44 -61 44 -2 0 -55 30 -117 66 -63 37 -305 177 -539
312 -234 134 -540 311 -680 392 -140 81 -271 157 -290 168 -19 10 -153 87
-297 170 -144 84 -277 160 -295 171 -18 10 -249 143 -513 296 -264 153 -496
286 -515 297 -19 10 -44 24 -54 31 -11 7 -44 27 -72 45 -29 17 -55 32 -57 32
-2 0 -92 51 -200 114 -245 142 -324 169 -522 180 -27 1 -79 -1 -115 -5z"/>
</g>
</svg>
